<svg width="102" height="86" viewBox="0 0 102 86" fill="none" xmlns="http://www.w3.org/2000/svg">
<path d="M13.7237 84.7133C14.4316 82.2842 15.9214 80.1566 17.9619 78.6607C19.0562 77.8362 20.2677 77.1803 21.5563 76.7147C22.9524 76.1865 24.4089 75.8343 25.8921 75.6662C26.7554 75.554 26.2921 75.0907 25.2094 74.6907C21.3662 73.3739 17.4255 71.979 13.4457 70.7305C13.6196 70.1444 13.8247 69.5681 14.0602 69.004L14.7479 67.2727L15.5624 65.5998C15.8355 65.0438 16.0842 64.4731 16.4061 63.9464C17.0353 62.8783 17.601 61.7761 18.3277 60.7665L19.347 59.2205L20.4688 57.7378C23.474 53.806 26.9887 50.2913 30.9205 47.2861C34.8759 44.311 39.1305 41.7563 43.6156 39.6632C48.0949 37.5788 52.6979 35.7708 57.3985 34.2495C62.5341 32.5572 67.7477 31.0989 72.9419 29.6016C75.5365 28.8505 78.1263 28.1043 80.7063 27.3093C83.2863 26.5143 85.8565 25.6999 88.3341 24.6757C90.8186 23.6913 93.1595 22.3774 95.2938 20.7691C97.4259 19.2011 99.1244 17.1167 100.229 14.7118C100.748 13.5082 101.085 12.2344 101.229 10.932C101.392 9.63823 101.354 8.32704 101.117 7.04485C100.644 4.52337 99.2881 2.10438 97.069 0.899727C96.5862 0.602222 95.801 2.16778 96.1521 2.42139C96.3526 2.54121 96.5435 2.67648 96.7228 2.82611C96.8838 2.98706 97.0446 3.1481 97.2348 3.28954C97.4251 3.43097 97.5227 3.64549 97.6787 3.82107C97.8229 4.00641 97.9533 4.20199 98.0689 4.4063C98.5669 5.25736 98.9088 6.19056 99.0785 7.1619C99.4259 9.33506 99.1502 11.5623 98.2834 13.5852C98.0739 14.0799 97.8294 14.559 97.5519 15.019L97.1081 15.6676C96.9618 15.8919 96.757 16.1065 96.5814 16.3309C95.834 17.2082 95.0026 18.0102 94.0989 18.7256C92.1355 20.1939 89.9872 21.3976 87.7098 22.3055C85.2916 23.2832 82.8256 24.1378 80.321 24.866C70.1082 28.0264 59.5249 30.6307 49.2049 34.6104C45.0756 36.1803 41.0573 38.0281 37.1778 40.1411C36.2121 40.6776 35.2562 41.2532 34.2954 41.8043L31.4765 43.6477L28.755 45.6376L26.1603 47.7934C22.7543 50.7573 19.7345 54.1375 17.1719 57.8548C14.5649 61.6089 12.5727 65.7545 11.2705 70.1356C8.51145 69.2993 5.70542 68.6267 2.86711 68.1213C2.65693 68.0797 2.43911 68.1036 2.24288 68.1896C1.99903 67.5458 0.7212 67.3897 0.765096 68.1261C0.813249 68.922 0.90287 69.7147 1.03342 70.5013C1.20412 71.306 1.39916 72.0863 1.65277 72.8764C1.88336 73.6535 2.16521 74.4143 2.4965 75.154C2.84766 75.9051 3.23293 76.6318 3.63774 77.3293C4.03459 78.0364 4.48121 78.7144 4.97413 79.3582C5.48135 80.002 6.00801 80.6262 6.55425 81.2115C7.0917 81.7993 7.66687 82.3516 8.27596 82.8648C8.90023 83.3818 9.53909 83.8646 10.178 84.3084L10.2023 84.4695C10.2365 84.728 10.5584 84.8254 10.9096 84.7961L11.5973 85.2302C12.1776 85.518 13.5481 85.2693 13.7237 84.7133ZM7.87594 74.3592C7.95195 74.4201 8.03562 74.4709 8.12474 74.5103L8.43682 74.6274L7.97352 74.5444L7.87594 74.3592ZM7.56868 73.7788C7.17363 73.0813 6.77855 72.3742 6.37863 71.6719C6.90048 71.8718 7.42726 72.0474 7.95399 72.223C7.72964 72.5351 7.93939 73.0082 8.71973 73.1642L9.07576 73.2373L8.09051 73.3935C7.97599 73.4018 7.86621 73.4423 7.77384 73.5105C7.68147 73.5787 7.61031 73.6718 7.56868 73.7788ZM22.5512 74.8615L22.3171 74.9103C22.2462 74.8535 22.1674 74.8074 22.0831 74.7737C21.888 74.6956 21.6929 74.6274 21.4929 74.5543L22.5512 74.8615ZM20.937 75.2857L20.7272 75.3491C20.7601 75.3309 20.7871 75.304 20.8052 75.2711L20.937 75.2857ZM20.4053 75.4565C19.3248 75.8303 18.2828 76.3072 17.2937 76.8806C17.2372 76.8311 17.1749 76.7886 17.1083 76.7538C16.6596 76.5685 16.2111 76.3928 15.7672 76.2124C16.0013 75.9783 15.8647 75.637 15.2355 75.4175L13.9285 74.9492C15.8751 74.8983 17.8214 75.062 19.7323 75.437C19.9539 75.4815 20.1814 75.4881 20.4053 75.4565ZM16.3816 77.5293C16.0402 77.7732 15.7136 78.0316 15.4014 78.3047C14.5187 78.0462 13.631 77.7731 12.7482 77.4756C13.0132 77.5164 13.2842 77.4929 13.5384 77.4073L16.3816 77.5293ZM13.9285 79.7971C13.2444 80.6318 12.66 81.5435 12.1874 82.5137C12.0689 82.4252 11.9638 82.32 11.8752 82.2016C12.2654 82.0943 12.5337 81.8845 12.3435 81.6163L12.0459 81.1823C12.3048 80.9058 12.6211 80.6893 12.9726 80.5482C13.4652 80.2507 13.1921 79.8995 12.6897 79.7386L13.9285 79.7971ZM9.93902 81.7188C9.07417 80.9248 8.26127 80.076 7.50533 79.1777C6.78242 78.2565 6.12092 77.2888 5.52519 76.2807C4.90474 75.2552 4.36654 74.1822 3.91571 73.0716C3.4277 71.9456 3.01386 70.7888 2.6769 69.6088C2.6769 69.6088 2.71594 69.6478 2.76959 69.6429L4.05717 69.955C3.98344 70.013 3.93204 70.0947 3.9116 70.1862C3.89116 70.2778 3.90288 70.3736 3.94494 70.4575C4.75454 71.9889 5.60813 73.4958 6.35434 74.8761C6.2763 75.1199 6.41286 75.4126 6.77864 75.6126L7.15419 76.2125C7.01763 76.4466 7.10051 76.7343 7.54921 76.9001C7.98328 77.6366 8.3832 78.3486 8.76361 79.0412C8.76361 79.0412 8.72942 79.0753 8.71479 79.09C8.77146 80.0322 9.19527 80.9146 9.89514 81.548L9.93902 81.7188ZM10.8852 71.6328L10.812 71.9108C9.56842 71.5779 8.34541 71.1724 7.14925 70.6964L10.8852 71.6328ZM13.0164 72.1839L13.1726 72.2229C13.1052 72.2353 13.0407 72.2601 12.9824 72.2961L13.0164 72.1839Z" fill="#00875F"/>
</svg>
